<?xml version="1.0" encoding="utf-8"?>
<!-- Generator: Adobe Illustrator 16.0.0, SVG Export Plug-In . SVG Version: 6.00 Build 0)  -->
<!DOCTYPE svg PUBLIC "-//W3C//DTD SVG 1.1//EN" "http://www.w3.org/Graphics/SVG/1.1/DTD/svg11.dtd">
<svg version="1.1" id="Layer_1" xmlns="http://www.w3.org/2000/svg" xmlns:xlink="http://www.w3.org/1999/xlink" x="0px" y="0px"
	 width="200px" height="200px" viewBox="0 0 200 200" enable-background="new 0 0 200 200" xml:space="preserve">
<rect x="-534.683" y="-272.354" display="none" width="1296.41" height="781.2"/>
<g>
	<polygon fill="#00374C" points="6.881,86.036 4.553,82.001 6.881,77.963 11.543,77.963 13.871,82.001 11.543,86.036 	"/>
	<polygon fill="#00374C" points="69.73,66.992 67.4,62.959 69.73,58.929 74.387,58.929 76.716,62.959 74.387,66.992 	"/>
	<polygon fill="#00374C" points="102.813,161.554 100.483,157.52 102.813,153.484 107.469,153.484 109.799,157.52 107.469,161.554 	
		"/>
	<polygon fill="#00374C" points="56.611,126.396 53.565,121.11 56.611,115.823 62.717,115.823 65.771,121.11 62.717,126.396 	"/>
	<rect x="96.936" y="53.261" fill="#00374C" width="45.714" height="2.559"/>
	<rect x="95.779" y="133.997" fill="#00374C" width="38.119" height="2.563"/>
	<rect x="31.519" y="93.509" fill="#00374C" width="75.129" height="2.563"/>
	<polygon fill="#808999" points="25.068,102.818 20.437,94.789 25.068,86.76 34.339,86.76 38.975,94.789 34.339,102.818 	"/>
	<polygon fill="#808999" points="92.074,62.959 87.214,54.543 92.074,46.126 101.792,46.126 106.649,54.543 101.792,62.959 	"/>
	<polygon fill="#00374C" points="60.018,107.575 52.634,94.789 60.018,82.001 74.787,82.001 82.167,94.789 74.787,107.575 	"/>
	<path fill="#808999" d="M195.446,74.894v-7.895H148.21c-7.459,0-14.916,3.246-21.299,9.296c-5.621,5.405-8.65,12.761-8.65,21.729
		c0,8.871,3.133,16.432,8.865,21.841c6.381,5.949,14.057,9.079,21.732,9.079h46.588v-7.888h-7.672v-19.138h7.672v-7.782h-29.775
		v7.782h14.32v19.138h-31.133c-5.838,0-11.457-2.384-16-6.921c-4.545-4.541-6.922-10.273-6.922-16.111
		c0-6.483,2.271-11.996,6.49-16.11c4.754-4.643,10.381-7.021,15.783-7.021H195.446z"/>
	<path fill="#00374C" d="M148.21,59.432h47.082v-7.784h-19.516V38.446h-8.057v13.201h-5.207V38.446h-8.063v13.201h-6.24
		c-11.244,0-22.711,4.76-32.219,13.733c-8.542,8.108-13.08,19.242-13.08,32.644c0,13.19,4.644,24.545,13.4,32.65
		c9.516,8.867,21.09,13.625,32.547,13.625h5.592v13.759h8.063V144.3h5.207v13.759h8.057V144.3h19.516v-7.679h-46.434
		c-10.381,0-19.463-3.676-26.492-10.703c-7.457-7.454-11.89-17.946-11.89-27.894c0-11.132,3.783-20.324,10.917-27.135
		C129.181,63.432,138.698,59.432,148.21,59.432"/>
	<polygon fill="#808999" points="76.304,148.068 68.917,135.276 76.304,122.489 91.067,122.489 98.448,135.276 91.067,148.068 	"/>
</g>
<rect x="-534.683" y="-272.354" display="none" fill="none" width="1296.41" height="781.2"/>
</svg>
