<?xml version="1.0" encoding="iso-8859-1"?>
<!-- Generator: Adobe Illustrator 19.0.0, SVG Export Plug-In . SVG Version: 6.00 Build 0)  -->
<svg xmlns="http://www.w3.org/2000/svg" xmlns:xlink="http://www.w3.org/1999/xlink" version="1.1" id="Capa_1" x="0px" y="0px" viewBox="0 0 496 496" style="enable-background:new 0 0 496 496;" xml:space="preserve" width="512px" height="512px">
<g>
	<g>
		<g>
			<path d="M447.812,390.192c-5.368-32.232-27.968-58.68-58.976-69.016l-20.832-6.944V232h-16v76.904l-32-10.664V288h-16v14.216     c-2.088,3.424-13.424,17.784-56,17.784c-42.512,0-53.904-14.424-56-17.808V288h-16v10.232l-32,10.664V232h-16v82.232     l-20.832,6.944c-31,10.336-53.6,36.784-58.976,69.016L30.556,496h434.888L447.812,390.192z M315.5,313.6l52.352,17.448     c-1.536,23.848-21.2,36.952-55.848,36.952c-40.688,0-51.816-20.472-54.856-32.256C293.58,333.96,309.132,321.752,315.5,313.6z      M180.508,313.6c6.36,8.144,21.904,20.352,58.304,22.144C235.748,347.392,224.62,368,184.004,368     c-34.648,0-54.312-13.104-55.848-36.952L180.508,313.6z M380.812,480c1.776-5.768,3.192-13.528,3.192-24     c0-26.128-16.64-51.376-17.344-52.44l-13.312,8.872c0.144,0.224,14.656,22.24,14.656,43.568c0,13.272-2.64,20.624-4.312,24     H132.348c-1.736-3.472-4.344-10.816-4.344-24c0-21.208,14.512-43.352,14.664-43.568l-13.32-8.864     c-0.704,1.056-17.344,26.304-17.344,52.432c0,10.472,1.416,18.232,3.192,24H49.452l14.528-87.176     c4.392-26.368,22.888-48.008,48.256-56.472l0.424-0.144C115.22,353.656,127.74,384,184.004,384c37.52,0,55.392-15.4,64-30.048     c8.608,14.648,26.48,30.048,64,30.048c56.264,0,68.784-30.344,71.352-47.792l0.424,0.144     c25.368,8.464,43.856,30.104,48.256,56.472L446.556,480H380.812z" fill="#503f9e"/>
			<path d="M147.54,215.552c4.08,14.04,11.616,26.912,22.24,37.536l31.2,31.192c7.552,7.552,17.6,11.72,28.28,11.72h37.496     c10.68,0,20.728-4.168,28.28-11.72l31.2-31.192c10.624-10.624,18.16-23.496,22.24-37.536     c19.928-2.256,35.528-19.024,35.528-39.552c0-13.128-6.448-24.704-16.248-32h0.248v-24c0-66.168-53.832-120-120-120     s-120,53.832-120,120v24h0.248c-9.8,7.296-16.248,18.872-16.248,32C112.004,196.528,127.604,213.296,147.54,215.552z      M224.004,152v24c0,4.416-3.592,8-8,8h-48c-4.408,0-8-3.584-8-8v-24H224.004z M210.564,136     c14.168-8.224,26.744-19.256,36.504-32.92l0.936-1.312l0.936,1.312c9.76,13.664,22.336,24.696,36.504,32.92h-21.44h-8h-16h-8     H210.564z M314.916,241.776l-31.2,31.192c-4.464,4.472-10.648,7.032-16.968,7.032h-37.496c-6.32,0-12.496-2.56-16.968-7.032     l-31.2-31.192c-11.736-11.744-18.896-26.832-20.64-43.112c2.392,0.8,4.904,1.336,7.56,1.336h48c13.232,0,24-10.768,24-24v-24h16     v24c0,13.232,10.768,24,24,24h48c2.656,0,5.168-0.536,7.552-1.336C333.812,214.944,326.66,230.032,314.916,241.776z M336.004,176     c0,4.416-3.592,8-8,8h-48c-4.408,0-8-3.584-8-8v-24h64V176z M368.004,176c0,10.552-6.896,19.44-16.376,22.64     c0.224-2.576,0.376-5.16,0.376-7.784V176v-22.528C361.292,156.784,368.004,165.584,368.004,176z M144.004,120     c0-57.344,46.656-104,104-104s104,46.656,104,104v16h-8c-32.488,0-63.16-15.784-82.04-42.216l-13.96-19.552l-13.96,19.544     c-18.88,26.44-49.552,42.224-82.04,42.224h-8V120z M144.004,153.472V176v14.856c0,2.616,0.152,5.208,0.376,7.784     c-9.48-3.2-16.376-12.088-16.376-22.64C128.004,165.584,134.716,156.784,144.004,153.472z" fill="#503f9e"/>
		</g>
	</g>
</g>
<g>
</g>
<g>
</g>
<g>
</g>
<g>
</g>
<g>
</g>
<g>
</g>
<g>
</g>
<g>
</g>
<g>
</g>
<g>
</g>
<g>
</g>
<g>
</g>
<g>
</g>
<g>
</g>
<g>
</g>
</svg>
