<?xml version="1.0" encoding="iso-8859-1"?>
<!-- Generator: Adobe Illustrator 19.0.0, SVG Export Plug-In . SVG Version: 6.00 Build 0)  -->
<svg xmlns="http://www.w3.org/2000/svg" xmlns:xlink="http://www.w3.org/1999/xlink" version="1.1" id="Capa_1" x="0px" y="0px" viewBox="0 0 496 496" style="enable-background:new 0 0 496 496;" xml:space="preserve" width="512px" height="512px">
<g>
	<g>
		<path d="M392,113.76l-30.168-7.576c-1.832-5.528-4.024-10.864-6.576-15.968L371.2,63.56l-42.76-42.776l-26.656,15.952    c-5.096-2.544-10.44-4.736-15.96-6.568L278.24,0h-60.48l-7.584,30.168c-5.52,1.832-10.864,4.024-15.96,6.576L167.56,20.792    L124.8,63.56l15.952,26.656c-2.552,5.104-4.752,10.44-6.576,15.96L104,113.76v60.488l14.304,3.592    c-6.816,14.064-11.336,28.84-13.2,44.136c-4.4,36.04,4.648,72.008,25.456,101.272c14.024,19.712,21.44,44.336,21.44,71.2h0.248    c0.536,5.192,2.68,9.88,5.992,13.552c-3.84,4.256-6.24,9.832-6.24,16c0,12.76,10.04,23.136,22.624,23.864    c12.6,29,41.4,48.136,73.376,48.136s60.776-19.136,73.376-48.136C333.96,447.136,344,436.76,344,424c0-6.168-2.408-11.744-6.24-16    c3.768-4.176,6.12-9.632,6.208-15.664H344c0-25.76,7.224-49.384,20.88-68.32C382.624,299.424,392,270.376,392,240    c0-21.528-4.904-42.816-14.2-62.192l14.2-3.568V113.76z M248,480c-23.08,0-44.024-12.52-55.312-32h110.624    C292.024,467.48,271.08,480,248,480z M320,432H176c-4.408,0-8-3.584-8-8c0-4.416,3.592-8,8-8h144c4.408,0,8,3.584,8,8    C328,428.416,324.408,432,320,432z M320,400H176c-4.408,0-8-3.584-8-8c0-4.416,3.592-8,8-8h144c4.408,0,8,3.584,8,8    C328,396.416,324.408,400,320,400z M351.904,314.656c-11.568,16.032-19.072,34.912-22.208,55.432    c-2.968-1.32-6.24-2.088-9.696-2.088H176c-3.56,0-6.904,0.824-9.944,2.224c-3.312-20.816-10.872-39.968-22.464-56.256    c-18.496-26.008-26.52-57.992-22.608-90.064c1.784-14.6,6.32-28.68,13.208-42.032c1.816,5.504,4.008,10.824,6.552,15.904    L124.8,224.44l42.76,42.776l26.656-15.952c5.096,2.544,10.44,4.744,15.968,6.568L217.76,288H224v32h16v-32h16v32h16v-32h6.24    l7.584-30.168c5.52-1.832,10.864-4.024,15.968-6.568l26.656,15.952l42.76-42.776l-15.952-26.656    c2.552-5.104,4.752-10.44,6.576-15.96l0.072-0.016C371.112,199.8,376,219.776,376,240    C376,266.992,367.664,292.808,351.904,314.656z M376,161.76l-26.896,6.76l-1.28,4.424c-2.168,7.496-5.104,14.64-8.744,21.232    l-2.224,4.032l14.208,23.752l-25.12,25.12l-23.752-14.208l-4.024,2.224c-6.584,3.632-13.736,6.576-21.232,8.744l-4.416,1.28    L265.76,272h-35.52l-6.76-26.888l-4.416-1.28c-7.504-2.168-14.648-5.112-21.232-8.744l-4.024-2.224l-23.752,14.208l-25.12-25.12    l14.208-23.752l-2.224-4.032c-3.64-6.592-6.584-13.744-8.744-21.232l-1.28-4.424L120,161.76v-35.52l26.896-6.76l1.28-4.424    c2.168-7.496,5.104-14.64,8.744-21.232l2.224-4.032L144.936,66.04l25.12-25.12l23.752,14.208l4.024-2.224    c6.584-3.632,13.736-6.576,21.232-8.744l4.416-1.28L230.24,16h35.52l6.76,26.888l4.416,1.28    c7.504,2.168,14.648,5.112,21.232,8.744l4.024,2.224l23.752-14.208l25.12,25.12L336.856,89.8l2.224,4.032    c3.64,6.592,6.584,13.744,8.744,21.232l1.28,4.424L376,126.24V161.76z" fill="#2ab87e"/>
	</g>
</g>
<g>
	<g>
		<path d="M248,56c-48.52,0-88,39.48-88,88s39.48,88,88,88s88-39.48,88-88S296.52,56,248,56z M248,216c-39.696,0-72-32.296-72-72    s32.304-72,72-72s72,32.296,72,72S287.696,216,248,216z" fill="#2ab87e"/>
	</g>
</g>
<g>
	<g>
		<path d="M248,136c-4.408,0-8-3.584-8-8s3.592-8,8-8s8,3.584,8,8h16c0-10.416-6.712-19.216-16-22.528V88h-16v17.472    c-9.288,3.312-16,12.112-16,22.528c0,13.232,10.768,24,24,24c4.408,0,8,3.584,8,8s-3.592,8-8,8c-4.408,0-8-3.584-8-8h-16    c0,10.416,6.712,19.216,16,22.528V200h16v-17.472c9.288-3.312,16-12.112,16-22.528C272,146.768,261.232,136,248,136z" fill="#2ab87e"/>
	</g>
</g>
<g>
	<g>
		<rect x="408" y="136" width="16" height="16" fill="#2ab87e"/>
	</g>
</g>
<g>
	<g>
		<rect x="440" y="136" width="16" height="16" fill="#2ab87e"/>
	</g>
</g>
<g>
	<g>
		<rect x="472" y="136" width="16" height="16" fill="#2ab87e"/>
	</g>
</g>
<g>
	<g>
		<rect x="8" y="136" width="16" height="16" fill="#2ab87e"/>
	</g>
</g>
<g>
	<g>
		<rect x="40" y="136" width="16" height="16" fill="#2ab87e"/>
	</g>
</g>
<g>
	<g>
		<rect x="72" y="136" width="16" height="16" fill="#2ab87e"/>
	</g>
</g>
<g>
	<g>
		<rect x="256" y="336" width="16" height="16" fill="#2ab87e"/>
	</g>
</g>
<g>
	<g>
		<rect x="224" y="336" width="16" height="16" fill="#2ab87e"/>
	</g>
</g>
<g>
</g>
<g>
</g>
<g>
</g>
<g>
</g>
<g>
</g>
<g>
</g>
<g>
</g>
<g>
</g>
<g>
</g>
<g>
</g>
<g>
</g>
<g>
</g>
<g>
</g>
<g>
</g>
<g>
</g>
</svg>
